<svg version="1.1" xmlns="http://www.w3.org/2000/svg" style="display: block;" viewBox="0 0 2048 2048" width="2048" height="2048" preserveAspectRatio="none">
<path transform="translate(0,0)" fill="rgb(250,249,248)" d="M 0 0 L 2048 0 L 2048 2048 L 0 2048 L 0 0 z"/>
<path transform="translate(0,0)" fill="rgb(2,2,1)" d="M 503.733 261.403 C 509.851 260.951 517.787 260.89 523.994 260.892 C 601.81 260.918 679.659 260.945 757.473 260.925 L 1242.03 260.89 L 1443.8 260.944 C 1474.4 260.881 1536.69 259.038 1564.14 263.672 C 1611.4 271.649 1655.07 293.946 1689.25 327.549 C 1729.51 367.313 1756.59 422.872 1756.93 479.99 L 1756.88 937.244 L 1756.99 1061.48 C 1757.02 1088.41 1758.48 1130.08 1753.41 1155.02 C 1744.31 1197.83 1722.94 1237.07 1691.91 1267.93 C 1660.54 1299.94 1620.77 1322.43 1577.18 1332.82 C 1542.46 1341.06 1491.59 1338.84 1454.14 1338.81 L 1321.25 1338.76 L 804.999 1338.79 C 737.316 1383.48 668.357 1427.23 600.122 1471.1 C 580.039 1484.05 559.888 1496.9 539.67 1509.64 C 519.507 1522.37 496.228 1544.16 483.483 1509.92 C 491.007 1469.84 502.431 1429.3 510.598 1389.25 C 513.983 1372.65 518.153 1354.1 522.898 1337.89 C 409.487 1339.31 304.823 1250.59 292.606 1136.05 C 290.519 1116.48 291.753 1093.88 291.802 1074 L 291.511 992.962 L 291.665 748.976 L 291.715 559.006 C 291.697 532.49 290.227 475.372 294.183 451.236 C 300.73 411.905 317.823 375.086 343.641 344.701 C 383.644 296.551 441.344 266.529 503.733 261.403 z"/>
<path transform="translate(0,0)" fill="rgb(250,249,248)" d="M 508.404 298.401 C 513.174 298.108 517.951 297.943 522.73 297.906 L 1243.4 297.891 L 1445.01 297.865 C 1472.38 297.865 1530.3 296.269 1555.37 300.478 C 1596.37 307.387 1634.19 326.913 1663.56 356.336 C 1688.57 381.123 1708.64 416.079 1715.12 450.774 C 1719.78 475.73 1718.27 508.388 1718.26 534.259 L 1718.25 650.267 L 1718.55 1108.77 C 1719.12 1158.54 1699.42 1206.39 1663.97 1241.34 C 1638.01 1267.44 1605.45 1286.01 1569.77 1295.09 C 1538.08 1303.02 1494.16 1300.86 1460.53 1300.87 L 1339.25 1300.91 L 971.65 1300.93 L 859.174 1300.84 C 845.478 1300.83 803.051 1298.76 791.725 1303.24 C 783.296 1306.57 759.417 1323.56 750.68 1329.26 L 688.532 1369.3 C 636.038 1403.56 581.112 1437.61 529.468 1472.67 C 534.677 1454.12 566.746 1322.61 565.46 1312.42 C 564.599 1305.59 558.899 1301.64 552.473 1300.74 C 539.316 1298.88 525.166 1300.9 511.816 1300.19 C 473.599 1298.15 432.873 1281.91 403.144 1257.92 C 364.32 1226.61 336.33 1181.71 331.385 1131.49 C 329.61 1113.48 330.265 1095.22 330.31 1077.14 L 330.214 1009.39 L 330.366 781.108 L 330.303 568.738 L 330.325 512.288 C 330.22 454.901 334.186 417.003 372.553 370.118 C 406.538 329.147 455.403 303.35 508.404 298.401 z"/>
<path transform="translate(0,0)" fill="rgb(2,2,1)" d="M 1020.52 348.163 C 1031.83 347.529 1035.44 351.104 1041.16 360.322 C 1086.39 377.857 1132.02 394.319 1178.03 409.693 C 1198.08 416.35 1228.7 424.465 1247.1 431.964 C 1253.86 420.629 1279.31 368.824 1288.43 364.994 C 1292.43 363.317 1297.17 363.773 1301.02 365.654 C 1304.12 367.174 1306.2 369.678 1307.13 373.013 C 1308.23 376.988 1307.52 381.214 1306.23 385.045 C 1301.33 399.576 1282.8 428.612 1274.43 442.79 L 1384.57 513.122 C 1405.26 526.106 1433.74 542.677 1452.99 556.46 C 1466.46 547.853 1523.91 504.484 1534 504.467 C 1538.58 504.459 1542.73 507.195 1545.56 510.623 C 1548.12 513.67 1549.22 517.677 1548.58 521.6 C 1546.94 531.586 1522.37 546.11 1513.86 551.871 L 1470.43 581.235 C 1475.11 598.691 1478.65 618.108 1482.32 635.986 C 1494.69 696.281 1510.4 756.093 1523.61 816.134 C 1539.27 816.155 1554.94 816.096 1570.61 815.958 C 1580.99 815.895 1613.88 812.534 1614.29 829.094 C 1614.74 847.207 1593.38 845.275 1580.72 845.151 C 1561.9 844.966 1542.59 844.984 1523.55 845.015 C 1509.92 891.94 1496.81 939.013 1484.22 986.226 C 1478.39 1007.93 1472.55 1034.65 1465.69 1055.57 C 1477.62 1063.15 1533.17 1094.89 1536.22 1106 C 1537.25 1109.74 1536.38 1113.64 1534.34 1116.88 C 1532.01 1120.56 1528.15 1123.54 1523.84 1124.43 C 1520.61 1125.09 1517.73 1124.11 1514.82 1122.79 C 1504.51 1118.11 1494.71 1110.73 1485.19 1104.59 C 1471.01 1095.45 1456.64 1086.51 1442.79 1076.87 C 1405.32 1097.51 1363.46 1114.46 1325.75 1135.27 C 1308.22 1144.95 1288.45 1155.33 1270.31 1163.62 C 1280.16 1180.41 1292.06 1196.28 1301.19 1213.45 C 1304.02 1218.78 1306.45 1225.46 1304.32 1231.47 C 1303.17 1234.7 1300.84 1236.95 1297.72 1238.3 C 1293.63 1240.07 1288.88 1240.48 1284.73 1238.76 C 1277.1 1235.61 1226.55 1149.93 1221.48 1137.63 C 1229.68 1105.64 1245.45 1121.82 1256.54 1140.56 C 1278.26 1127.01 1308.6 1111.97 1331.64 1100.29 C 1358.26 1086.8 1389.32 1070.77 1416.66 1059.33 C 1402.7 1051.24 1307.46 995.577 1304.38 987.927 C 1302.83 984.074 1304.66 977.861 1306.73 974.532 C 1308.75 971.286 1311.88 968.839 1315.7 968.231 C 1322.6 967.135 1327.37 971.826 1332.5 975.642 C 1332.88 967.171 1337.51 945.56 1339.6 936.723 C 1346.74 906.428 1353.77 874.32 1363.51 844.823 L 1287.31 844.996 C 1280.16 845.024 1273.07 845.046 1265.44 845.081 C 1251.79 845.145 1239.05 847.129 1237.12 829.484 C 1236.45 823.35 1244.53 816.593 1250.09 816.313 C 1262.48 815.689 1276.39 816.151 1288.85 816.275 L 1364.05 816.738 C 1358.35 798.176 1352.8 771.603 1348.51 752.451 C 1343.2 728.76 1336.16 697.507 1333.98 673.671 C 1328.06 678.394 1318.07 687.597 1310.49 687.595 C 1304 687.594 1297.25 677.238 1298.87 671.163 C 1301.28 662.112 1314.83 655.797 1322.39 651.329 C 1293.93 640.677 1248.32 605.623 1221.71 588.463 C 1217.83 586.311 1219.4 568.4 1220.42 565.693 C 1224.92 553.78 1263.28 583.638 1269.16 587.338 L 1343.67 633.324 C 1360.44 621.592 1377.28 609.952 1394.18 598.407 C 1405.09 590.899 1418.64 581.081 1429.82 574.453 C 1402.53 559.124 1369.29 537.103 1342.53 520.147 C 1320.31 506.067 1281.08 481.914 1260.94 466.231 C 1256.47 473.695 1243.14 501.786 1234.01 503.985 C 1221.64 506.965 1212.5 493.298 1219.26 481.372 C 1223.35 474.151 1228.89 464.429 1233.52 456.397 C 1193.23 444.71 1153.29 431.874 1113.74 417.904 C 1090.09 409.658 1060.94 399.597 1038.6 389.115 C 1039.4 423.961 1038.84 459.818 1038.82 494.778 C 1074.17 511.287 1113.07 523.731 1149.34 538.34 C 1162.71 543.728 1177.82 553.585 1161.21 567.849 C 1151.66 570.371 1133.6 562.951 1124.19 559.105 C 1096.29 547.711 1065.23 538.541 1038.51 524.758 C 1040.61 563.14 1039.01 614.954 1038.96 654.379 C 1078.97 657.512 1108.62 697.297 1109.26 736.017 C 1130.78 712.542 1154.45 690.656 1175.93 666.275 L 1176.06 559.593 C 1176.06 542.514 1175.55 525.192 1176.23 508.219 C 1177.14 497.123 1189.69 490.981 1199.52 494.869 C 1216.59 501.622 1211.32 524.39 1212.08 539.101 C 1212.51 547.374 1212.05 557.357 1212.03 565.9 L 1211.94 676.848 C 1206.26 686.053 1187.89 704.555 1179.59 713.019 C 1155.75 737.308 1131.01 763.62 1105.66 786.183 C 1122.24 783.99 1157.73 784.837 1175.54 784.813 C 1195.95 762.199 1216.2 739.439 1236.29 716.538 C 1246.09 705.412 1255.32 694.224 1265.8 683.699 C 1278.12 669.25 1301.79 691.905 1291.42 704.593 C 1262.23 740.275 1231.12 775.393 1199.74 809.194 C 1189.19 820.561 1181.11 820.004 1166.62 820.027 C 1147.14 820.059 1127.7 819.922 1108.25 819.717 C 1113.19 827.546 1115.37 831.29 1119.11 839.685 C 1142.49 839.544 1166.94 838.5 1190.14 840.509 C 1196.93 841.096 1207.85 852.824 1212.49 857.617 C 1240.61 886.675 1268.99 915.665 1296.1 945.656 C 1304.36 954.465 1303.86 961.515 1296.29 970.583 C 1282.85 986.686 1267.94 966.219 1258.47 955.974 C 1233.64 929.127 1208 902.922 1183.29 875.967 C 1164.2 876.011 1145.11 875.929 1126.03 875.721 L 1128.04 885.795 C 1142.16 901.526 1213.92 966.154 1215.6 979.89 C 1215.65 980.321 1215.68 980.754 1215.72 981.186 L 1215.91 982.903 C 1216.34 987.064 1216.41 991.325 1216.35 995.544 C 1215.69 1041.1 1217.17 1086.84 1215.47 1132.34 C 1215.21 1139.26 1205.93 1148.49 1198.55 1147.94 C 1176.37 1146.31 1180.83 1127.69 1180.44 1111.69 C 1181 1070.68 1179.29 1029.35 1181.03 988.53 C 1161.64 968.055 1139.63 947.204 1119.71 926.824 C 1116.41 942.982 1109.54 958.198 1099.61 971.362 C 1081.39 995.714 1058.03 1008.92 1028.19 1013.03 C 979.184 1014.01 939 971.616 929.433 925.686 C 910.77 946.188 888.033 967.609 868.411 987.974 C 869.848 1017.4 868.258 1049.8 868.78 1079.57 C 869.084 1096.94 868.933 1116.5 868.254 1133.92 C 868.132 1137.07 866.499 1140.21 864.407 1142.58 C 861.264 1146.14 856.989 1147.91 852.216 1148.08 C 846.208 1148.3 844.69 1147.27 840.269 1143.81 C 833.769 1138.72 832.748 1128.66 833.011 1121.22 C 833.624 1103.87 830.873 982.444 835.091 975.969 C 847.03 957.642 904.19 903.561 921.698 885.063 L 924.247 875.164 C 906.034 876.37 884.474 875.956 865.988 876.019 C 846.135 897.085 826.388 918.252 806.75 939.519 C 796.821 950.192 786.957 962.41 775.854 971.786 C 773.071 974.136 770.48 976.136 766.77 976.586 C 762.593 977.093 758.859 975.212 755.764 972.537 C 751.564 968.905 748.005 963.362 747.891 957.661 C 747.693 947.855 792.817 904.031 801.755 894.513 C 812.833 882.718 844.26 845.887 857.09 840.963 C 865.638 837.683 918.353 839.656 931.946 839.23 C 934.515 831.509 937.481 826.568 941.854 819.857 C 923.838 819.774 905.647 820.155 887.63 819.995 C 869.416 819.79 862.805 822.453 849.36 807.898 C 818.442 774.426 786.795 739.203 758.039 703.958 C 749.733 693.777 768.874 669.532 784.007 684.067 C 794.106 693.767 803.569 704.826 813.197 715.643 C 833.587 738.556 853.794 761.631 873.818 784.863 C 896.969 784.663 920.121 784.876 943.264 785.502 C 918.973 762.76 895.271 739.396 872.183 715.433 C 862.827 705.828 844.674 687.947 838.106 677.556 L 838.026 676.587 C 837.282 666.629 837.8 652.776 837.786 642.559 L 837.741 573.711 C 837.769 552.278 836.962 529.772 838.38 508.501 C 839.534 491.198 869.954 487.322 872.909 507.035 C 873.908 513.699 873.59 522.985 873.404 529.821 C 872.17 575.187 874.895 621.382 873.346 666.644 C 893.411 689.047 919.65 714.204 940.985 735.785 C 939.932 695.535 971.245 661.507 1009.95 654.005 C 1010.52 625.815 1009.77 597.115 1010.08 568.886 C 1010.23 554.286 1009.63 538.745 1010.8 524.277 C 996.519 531.451 900.406 572.05 890.992 569.194 C 887.665 568.185 885.619 566.094 884.122 563.041 C 882.177 559.071 881.036 553.666 882.686 549.399 C 884.013 545.966 887.757 544.313 890.856 542.742 C 901.759 537.213 913.802 533.302 925.219 528.888 C 953.587 517.921 982.823 507.683 1010.07 494.143 C 1009.95 459.061 1010.07 423.979 1010.41 388.899 C 973.185 405.546 926.141 420.601 887.119 434.041 C 868.74 440.371 833.507 451.599 815.147 455.481 C 821.236 467.884 828.615 476.536 833.943 490.376 C 816.874 527.007 797.17 481.492 787.995 465.673 C 772.383 479.126 739.041 499.42 720.964 510.958 C 688.014 531.992 652.659 555.252 618.661 574.291 C 642.004 587.986 682.15 616.729 704.74 632.775 C 722.185 624.244 817.178 561.183 824.83 561.61 C 830.932 565.78 831.729 577.913 829.497 584.188 C 828.323 587.4 826.303 590.235 823.65 592.392 C 821.245 594.385 804.208 605 800.52 607.271 C 777.652 621.348 751.862 639.687 727.618 650.528 C 737.087 656.989 757.202 666.974 749.694 679.939 C 739.704 697.192 725.31 681.352 715.234 673.368 C 711.77 701.968 704.564 734.415 698.455 762.723 C 694.934 779.037 690.448 801.295 685.799 816.962 C 722.505 815.003 762.568 817.143 799.536 816.646 C 815.628 816.43 817.441 843.456 798.769 844.66 C 785.759 845.499 772.729 844.999 759.66 844.923 L 686.402 844.894 C 695.88 884.524 712.067 934.933 716.51 975.244 C 718.645 973.711 720.782 972.149 722.995 970.732 C 727.088 968.112 730.642 966.712 735.513 968.004 C 738.937 968.912 741.556 971.392 743.313 974.401 C 745.573 978.271 746.719 983.759 745.102 988.063 C 742.652 994.588 644.496 1052.45 631.41 1059.86 C 641.002 1062.88 667.239 1075.46 677.319 1080.43 C 714.945 1098.96 756.914 1118.49 792.542 1140.23 C 802.978 1124.08 818.109 1105.21 827.307 1136.01 C 823.406 1148.53 771.17 1236.08 763.426 1239.22 C 759.533 1240.79 753.06 1239.68 749.549 1237.57 C 746.718 1235.87 744.908 1233.17 744.225 1229.95 C 741.335 1216.34 770.91 1175.57 778.869 1163.13 C 764.827 1157.78 731.461 1139.35 716.231 1131.62 C 679.522 1113.05 642.589 1094.94 605.44 1077.27 C 596.108 1083.7 540.968 1120.27 533.17 1123.41 C 530.564 1124.45 527.727 1124.77 524.954 1124.34 C 521.093 1123.76 517.83 1121.64 515.667 1118.4 C 513.334 1114.92 511.82 1110.67 512.974 1106.48 C 516.535 1093.56 570.711 1063.71 583.916 1055.86 C 576.103 1031.47 568.829 1000.59 562.003 975.409 L 526.054 844.875 L 475.166 845.135 C 466.335 845.179 454.694 845.778 446.282 844.47 C 436.132 842.208 430.969 828.197 438.933 820.947 C 447.32 813.311 466.461 815.914 477.864 816.019 C 493.856 816.139 509.849 816.15 525.841 816.053 C 542.287 749.736 555.816 682.373 570.647 615.669 C 573.175 604.297 574.983 592.06 578.508 581.001 C 566.532 573.672 503.183 533.289 500.666 523.654 C 499.582 519.506 500.326 514.239 502.869 510.719 C 504.901 507.905 509.116 504.868 512.628 504.371 C 515.304 503.993 517.52 504.306 519.979 505.405 C 531.141 510.398 541.618 519.145 551.687 526.054 C 566.248 536.045 581.24 545.667 595.292 556.359 L 707.296 485.796 C 727.677 472.808 755.127 453.57 775.472 442.521 L 774.392 441.087 C 765.286 428.865 758.14 412.973 750.053 399.889 C 746.092 393.482 740.256 383.099 741.279 375.589 C 742.219 368.685 751.732 362.461 758.476 364.256 C 761.133 364.97 763.536 366.417 765.411 368.432 C 772.607 376.302 795.037 419.086 801.697 431.397 C 850.494 414.844 900.363 401.118 948.733 382.47 C 968.346 374.909 989.915 368.446 1008.72 359.056 C 1012.41 352.413 1013.61 351.237 1020.52 348.163 z"/>
<path transform="translate(0,0)" fill="rgb(250,249,248)" d="M 1018.28 686.106 C 1029.11 685.291 1037.93 686.735 1047.54 692.238 C 1059.73 699.277 1068.64 710.84 1072.36 724.416 C 1077.19 741.696 1073.85 760.462 1063.7 775.17 C 1058.92 782.1 1053.55 788.097 1049.64 795.616 C 1057.1 806.772 1066.32 815.565 1073.34 827.492 C 1102.53 877.038 1095.22 957.543 1031.26 974.883 C 1017.71 976.882 1003.41 972.358 992.83 963.787 C 951.614 930.403 951.306 863.878 979.913 822.414 C 986.289 813.171 993.911 805.167 1000.68 796.361 C 993.588 781.955 983.056 776.28 977.476 756.564 C 973.168 741.257 975.295 724.856 983.364 711.155 C 991.935 696.611 1002.67 690.413 1018.28 686.106 z"/>
<path transform="translate(0,0)" fill="rgb(250,249,248)" d="M 1445.64 596.93 C 1446.46 597.743 1452.35 629.392 1453.32 634.067 C 1461.78 674.789 1470.79 715.393 1480.36 755.867 C 1484.25 772.436 1490.33 801.24 1495.71 816.691 C 1473.34 814.945 1431.47 816.365 1407.68 816.442 L 1391.88 816.675 C 1378.88 765.647 1367.88 709.4 1357.41 657.702 C 1384.94 640.341 1419.39 616.24 1445.64 596.93 z"/>
<path transform="translate(0,0)" fill="rgb(250,249,248)" d="M 603.167 597.381 C 607.246 599.85 611.458 603.207 615.448 605.909 C 640.701 623.007 665.47 641.291 691.097 657.8 C 679.288 711.394 671.385 761.986 657.535 816.267 L 642.5 816.28 C 614.244 816.24 582.593 815.626 554.614 816.9 C 571.967 743.991 588.154 670.808 603.167 597.381 z"/>
<path transform="translate(0,0)" fill="rgb(250,249,248)" d="M 1492.83 844.557 L 1493.3 844.749 C 1493.18 844.336 1445.6 1023.83 1441.34 1042.03 C 1425.01 1031.55 1408.58 1021.23 1392.04 1011.07 C 1380.32 1003.45 1368.42 996.112 1356.33 989.073 C 1358.45 981.635 1360.14 973.51 1361.73 965.889 C 1370.3 925.008 1380.54 885.167 1391.74 844.928 C 1424.22 844.989 1460.64 845.659 1492.83 844.557 z"/>
<path transform="translate(0,0)" fill="rgb(250,249,248)" d="M 555.081 844.891 C 586.356 846.007 625.593 844.795 657.469 844.889 C 659.04 851.715 661.392 859.957 663.47 866.749 C 675.641 906.524 682.358 947.907 692.812 987.988 L 661.471 1008.08 C 644.574 1018.76 623.966 1030.55 608.147 1042.02 C 604.56 1021.27 594.293 988.063 588.647 966.721 C 577.928 926.198 567.041 885.012 555.081 844.891 z"/>
<path transform="translate(0,0)" fill="rgb(2,2,1)" d="M 1021.09 1034.96 C 1043.03 1034.17 1037.89 1053.85 1038.25 1069.25 C 1038.35 1073.59 1038.16 1078.07 1038.12 1082.42 C 1053.35 1075.23 1145.37 1036.17 1156.02 1039.87 C 1159.88 1041.21 1163.53 1045.49 1165 1049.21 C 1166.02 1051.82 1165.46 1054.76 1164.4 1057.25 C 1162.97 1060.57 1161 1062.48 1157.89 1064.21 C 1144.61 1071.54 1128.82 1076.18 1114.61 1081.62 C 1088.95 1091.36 1063.42 1101.43 1038.02 1111.83 C 1038.45 1145.81 1038.47 1179.8 1038.08 1213.79 C 1060.61 1202.23 1098.19 1190.02 1122.46 1180.51 C 1136.72 1174.92 1172.74 1160.85 1186.47 1157.43 C 1194.72 1160.98 1205.62 1165.47 1204.42 1175.91 C 1195.86 1188.56 1066.8 1228.8 1045.03 1240.5 C 1038.99 1243.74 1033.68 1249.51 1027.91 1252.05 C 1024.84 1252.2 1021.55 1252.1 1018.65 1251.04 C 1012.11 1248.64 1007.02 1241.5 1000.11 1238.66 C 972.773 1227.39 944.753 1217.42 917.003 1207.22 C 907.049 1203.56 847.533 1184.29 844.726 1176.1 C 843.946 1173.82 844.355 1171.68 845.38 1169.58 C 847.759 1164.72 852.81 1161.28 857.843 1159.66 C 860.766 1158.71 863.674 1158.42 866.691 1159.09 C 881.714 1162.45 897.407 1169.76 911.994 1175.08 C 944.257 1186.84 980.571 1198.51 1011.12 1213.41 C 1010.38 1181.27 1010.46 1143.43 1011.18 1111.32 C 985.743 1100.53 959.635 1091.13 933.752 1081.47 C 920.771 1076.63 907.116 1072.25 894.61 1066.28 C 891.555 1064.82 888.296 1063.17 886.341 1060.3 C 884.398 1057.45 882.952 1053.72 884.076 1050.26 C 885.403 1046.18 889.073 1041.18 893.284 1039.78 C 902.79 1036.61 998.971 1076 1011.05 1081.99 C 1010.82 1070.76 1009.53 1054.7 1012.11 1044.1 C 1013.39 1038.82 1016.64 1037.12 1021.09 1034.96 z"/>
<path transform="translate(0,0)" fill="rgb(2,2,1)" d="M 734.534 1676.17 C 754.209 1677.14 774.488 1676.13 794.021 1676.97 C 834.189 1678.71 865.853 1704.74 867.066 1746.3 C 867.79 1771.08 861.798 1786.17 845.141 1804.21 C 821.278 1824.1 805.099 1824.68 774.983 1824.79 L 734.658 1824.95 C 734.697 1776.28 735.579 1724.62 734.534 1676.17 z"/>
<path transform="translate(0,0)" fill="rgb(250,249,248)" d="M 757.068 1696.85 C 779.511 1697 809.347 1693.83 826.928 1710.11 C 850.288 1731.75 848.127 1767.57 827.776 1789.79 C 805.538 1807.56 784.571 1804.04 757.184 1804.08 C 758.998 1775.03 757.66 1726.77 757.068 1696.85 z"/>
<path transform="translate(0,0)" fill="rgb(2,2,1)" d="M 896.971 1676.19 C 923.848 1677.76 960.779 1672.76 985.878 1680.69 C 1017.2 1690.57 1018.8 1733.88 985.478 1747.77 C 1010.88 1755.95 1020.56 1771.48 1013.32 1797.68 C 1010.91 1802.48 1008.61 1806.45 1004.81 1810.35 C 999.177 1816.02 992.139 1820.09 984.416 1822.14 C 970.534 1825.94 914.981 1824.51 897.002 1824.77 L 896.971 1676.19 z"/>
<path transform="translate(0,0)" fill="rgb(250,249,248)" d="M 920.103 1758.1 C 928.719 1758.98 939.361 1758.8 948.238 1758.57 C 966.37 1758.09 991.003 1757.73 991.773 1782.2 C 991.99 1789.1 989.117 1793.13 984.539 1798.07 C 971.006 1807.4 938.394 1804.25 920.373 1804.35 C 920.527 1788.91 920.823 1773.53 920.103 1758.1 z"/>
<path transform="translate(0,0)" fill="rgb(250,249,248)" d="M 920.105 1695.87 C 935.749 1696.92 954.704 1694.71 969.647 1698.13 C 988.538 1702.45 991.503 1717.59 981.038 1732.75 C 969.286 1743.39 937.216 1739.98 919.963 1739.97 C 920.255 1725.61 920.857 1710.09 920.105 1695.87 z"/>
<path transform="translate(0,0)" fill="rgb(2,2,1)" d="M 1630.08 1717.69 C 1629.97 1700.05 1629.64 1626.3 1630.13 1602.95 C 1630.66 1602.35 1631.19 1601.76 1631.72 1601.16 L 1633.84 1601.02 C 1635.3 1602.67 1636.03 1604.84 1636.07 1607.04 C 1636.88 1643.73 1635.82 1680.94 1636.46 1717.6 C 1649.98 1721 1652.65 1725.93 1655.39 1738.91 C 1661.04 1733.04 1667.62 1726.61 1672 1719.81 C 1672 1711.82 1670.86 1673.88 1673.47 1669.01 C 1676.84 1667.51 1675.11 1667.75 1678.87 1668.46 C 1683.88 1675.39 1682.12 1710.78 1682.07 1721.9 C 1676.05 1731.79 1663.54 1742.77 1654.73 1750.7 C 1665.37 1751.4 1670.39 1752.2 1679.15 1744.31 C 1685.54 1738.55 1697.37 1721.36 1706.12 1718.68 C 1709.18 1719.33 1707.93 1718.57 1709.89 1721.24 C 1710.2 1723.66 1710.28 1726.28 1708.44 1728.14 C 1698.6 1738.12 1687.41 1751.38 1677.33 1760.72 L 1676.24 1762.75 C 1683.45 1769.04 1709.18 1794.97 1710.88 1803.52 C 1709.34 1806.51 1710.49 1805.31 1706.83 1806.71 C 1701.14 1806.23 1679.22 1780.72 1672.57 1774.39 C 1665.91 1773.5 1659.24 1772.73 1652.55 1772.09 C 1666.9 1783.25 1673.16 1789.26 1683.11 1804.44 C 1683.13 1812.51 1684.8 1851.94 1680.98 1856.39 L 1678.11 1857.87 C 1669.94 1854.97 1673.11 1816.44 1673.23 1806.99 C 1667.18 1798.67 1660.89 1792.92 1655.24 1785.45 C 1652.21 1819.32 1614.73 1817.94 1611.37 1787.24 C 1606.48 1792.44 1598.46 1800.45 1594.19 1805.8 C 1593.96 1816.01 1595.91 1850.99 1592.61 1856.59 C 1589.35 1858.1 1590.93 1858.03 1587.73 1857.19 C 1581.19 1850 1584.51 1816.99 1583.7 1804.51 C 1591.05 1794.13 1602.27 1781.64 1612.34 1773.83 L 1593.57 1774.99 L 1592.33 1776.13 C 1585.48 1782.52 1567.15 1804.01 1562.56 1806.61 C 1559.12 1806.37 1560.6 1806.97 1557.97 1804.71 C 1556.78 1795.15 1586.48 1764.21 1593.61 1763.98 L 1595.49 1760.49 C 1589.94 1760.34 1586.33 1758.34 1583.12 1753.88 C 1578.86 1747.97 1551.04 1725.73 1558.91 1719.29 C 1569.15 1719.36 1586.31 1742.62 1594.8 1750.56 C 1600.36 1750.74 1606.16 1751.01 1611.7 1751.07 C 1601.76 1741.73 1592.25 1732.9 1584.1 1721.85 C 1584.18 1712.54 1583.63 1682.98 1584.82 1671.6 C 1585.58 1670.7 1586.33 1669.8 1587.09 1668.9 L 1589.73 1667.9 C 1597.08 1672.65 1594.18 1709.52 1594.09 1719.3 C 1599.51 1726.2 1605.43 1732.7 1611.81 1738.73 L 1614.18 1727.45 C 1620.24 1720.99 1621.55 1719.91 1630.08 1717.69 z"/>
<path transform="translate(0,0)" fill="rgb(208,211,195)" d="M 1645.38 1762.77 C 1655.09 1760.17 1667.41 1758.82 1677.33 1760.72 L 1676.24 1762.75 C 1666.18 1766.15 1655.64 1764.68 1645.38 1762.77 z"/>
<path transform="translate(0,0)" fill="rgb(250,249,248)" d="M 1595.49 1760.49 C 1600.81 1760.67 1606.07 1760.39 1610.95 1762.25 L 1611.61 1763.55 C 1607.28 1766.09 1598.4 1765.05 1593.61 1763.98 L 1595.49 1760.49 z"/>
<path transform="translate(0,0)" fill="rgb(2,2,1)" d="M 1089.45 1676.18 L 1114.98 1676.21 C 1121.45 1693.23 1131.55 1715.28 1138.86 1732.48 L 1177.93 1824.7 C 1170.59 1823.94 1160.34 1824.19 1152.74 1824.15 C 1148.3 1812.39 1143.21 1801 1138.19 1789.48 C 1132.08 1789.81 1124.49 1789.67 1118.25 1789.73 L 1066.34 1789.5 C 1062.54 1800.41 1056.66 1813.84 1052.22 1824.74 C 1044.08 1824.09 1036.25 1824.33 1028.11 1824.45 L 1089.45 1676.18 z"/>
<path transform="translate(0,0)" fill="rgb(250,249,248)" d="M 1101.2 1700.64 C 1106.79 1707.67 1125.54 1758.67 1131.23 1770.87 C 1121.9 1769.84 1111.99 1770.09 1102.56 1770.09 C 1092.68 1770.1 1083.49 1770.09 1073.6 1770.66 C 1081.11 1755.36 1095.63 1717.07 1101.2 1700.64 z"/>
<path transform="translate(0,0)" fill="rgb(2,2,1)" d="M 461.944 1676.23 C 496.937 1676.77 531.936 1676.8 566.93 1676.32 C 566.255 1682.87 566.388 1690.28 566.347 1696.94 C 543.373 1695.65 509.039 1696.83 485.214 1696.91 L 485.073 1739.71 C 501.628 1738.21 540.802 1739.19 558.855 1739.1 C 558.52 1745.61 558.738 1752.69 558.815 1759.26 C 537.163 1759.35 515.51 1759.32 493.858 1759.18 C 490.215 1759.03 489.346 1758.84 485.734 1759.83 C 484.566 1763.62 484.956 1798.35 484.955 1804.14 L 567.345 1803.89 C 567.032 1810.47 567.228 1818.08 567.249 1824.75 C 554.495 1823.84 539.538 1824.45 526.503 1824.53 L 461.998 1824.77 L 461.944 1676.23 z"/>
<path transform="translate(0,0)" fill="rgb(2,2,1)" d="M 598.779 1676.23 C 625.842 1677.64 675.488 1677.44 702.827 1676.37 C 702.59 1682.79 702.871 1690.6 702.943 1697.14 C 676.379 1696.03 648.459 1697.25 621.481 1696.61 C 621.733 1710.98 621.656 1725.36 621.249 1739.73 C 641.464 1738.45 673.542 1739.36 695.136 1738.97 L 694.77 1759.87 C 678.406 1758.64 650.784 1759.53 633.5 1759.62 C 629.607 1759.66 625.542 1759.37 621.641 1759.16 C 621.78 1773.9 621.316 1789.47 621.109 1804.27 L 703.773 1803.99 C 703.636 1810.82 703.775 1818.01 703.8 1824.87 C 671.665 1823.74 630.907 1824.36 598.705 1824.98 C 599.491 1776.14 598.958 1725.2 598.779 1676.23 z"/>
<path transform="translate(0,0)" fill="rgb(2,2,1)" d="M 1350.19 1676.21 C 1358.08 1676.51 1365.97 1676.53 1373.86 1676.27 C 1373.83 1700.79 1374.37 1729.12 1373.15 1753.32 C 1379.81 1747.35 1391.48 1733.94 1398.02 1726.88 C 1413.66 1710.26 1429.06 1693.43 1444.23 1676.39 C 1453.52 1676.73 1462.77 1676.44 1472.06 1676.24 C 1452.76 1697.2 1432.02 1720.51 1411.98 1740.57 C 1423.08 1752.39 1438.66 1774.25 1448.56 1787.44 C 1457.57 1799.89 1466.75 1812.21 1476.1 1824.41 C 1468.04 1823.99 1457.08 1824.46 1448.81 1824.58 C 1433.81 1806.3 1410.17 1774.54 1396.91 1755.16 C 1389.19 1764.47 1382.24 1771.42 1373.72 1780 L 1373.97 1824.74 C 1366.86 1824.14 1357.19 1824.47 1349.84 1824.52 C 1350.45 1775.28 1350.15 1725.49 1350.19 1676.21 z"/>
<path transform="translate(0,0)" fill="rgb(2,2,1)" d="M 1251.58 1675.26 C 1282.9 1671.89 1302.98 1681.24 1322.95 1704.9 C 1317.2 1709.48 1311.49 1714.09 1305.8 1718.74 C 1279.27 1683.96 1229.84 1687.96 1214.14 1729.21 C 1208.42 1744.01 1209.07 1760.51 1215.91 1774.82 C 1221.92 1787.67 1232.8 1797.59 1246.14 1802.38 C 1261.58 1807.79 1274.56 1805.53 1288.71 1798.57 C 1295.84 1793.02 1300.47 1789.3 1305.59 1781.88 C 1310.83 1785.52 1318.62 1790.61 1322.99 1794.86 C 1284.79 1849.91 1199.01 1829.45 1187.8 1762.73 C 1184.3 1742.59 1189.02 1721.89 1200.91 1705.26 C 1213.69 1687.77 1230.53 1678.58 1251.58 1675.26 z"/>
<path transform="translate(0,0)" fill="rgb(2,2,1)" d="M 332.765 1676.12 C 363.757 1677.87 403.248 1676.75 434.854 1676.65 L 434.691 1697.11 C 409.399 1696.44 381.641 1696.98 356.157 1696.97 C 356.525 1711.03 356.119 1726.9 356.083 1741.11 C 364.873 1741.03 422.762 1739.78 427.314 1741.86 L 427.486 1745.25 L 427.509 1761.17 C 404.794 1760.47 379 1761.01 356.05 1760.99 C 355.947 1782.25 356.021 1803.52 356.273 1824.78 C 349.545 1824.25 339.741 1824.65 332.748 1824.75 C 332.847 1775.55 333.439 1725.24 332.765 1676.12 z"/>
</svg>