<svg version="1.1" xmlns="http://www.w3.org/2000/svg" style="display: block;" viewBox="0 0 2048 2048" width="2048" height="2048" preserveAspectRatio="none">
<path transform="translate(0,0)" fill="rgb(251,251,251)" d="M 0 0 L 2048 0 L 2048 2048 L 0 2048 L 0 0 z"/>
<path transform="translate(0,0)" fill="rgb(1,1,1)" d="M 1020.07 352.902 C 1024.56 352.772 1025.5 352.529 1029.24 354.723 C 1034.11 360.483 1032.25 386.73 1032.22 395.452 C 1032.21 420.765 1032.04 446.077 1031.72 471.388 C 1052.95 486.104 1075.2 498.452 1097.11 511.946 C 1141 538.967 1187.21 564.946 1230.44 592.863 L 1327.71 461.34 C 1339.22 446.026 1350.82 430.74 1361.84 415.053 C 1363.46 412.739 1365.7 411.273 1368.19 410.019 C 1372.16 409.632 1371.99 409.736 1375.43 411.296 C 1382.94 420.654 1362.25 441.894 1356.01 450.216 L 1322.71 495.085 C 1298.08 528.276 1269.28 569.788 1243.61 601.058 C 1260.12 609.069 1286.4 625.8 1302.9 635.67 L 1401.15 694.361 C 1434.99 672.351 1470.62 651.649 1505.02 630.418 C 1514.79 624.386 1539.67 607.418 1549.02 604.067 C 1554.95 604.397 1557.7 607.065 1558.02 613.024 C 1557.44 614.906 1556.71 616.963 1554.91 618.035 C 1507.03 646.605 1458.31 680.014 1409.34 706.299 C 1409.01 725.963 1411.81 859.387 1408.05 865.898 C 1406.88 867.92 1404.22 869.242 1402 869.56 C 1399.62 869.902 1397.11 869.355 1395.31 867.674 C 1393.21 865.708 1392.21 861.745 1391.95 858.921 C 1390.73 845.617 1392.18 830.811 1392.17 817.307 L 1392.17 717.886 C 1364.69 734.693 1337.05 751.229 1309.25 767.493 C 1308.75 809.597 1308.96 851.707 1309.89 893.804 C 1382.25 892.125 1460.18 893.587 1532.98 893.763 L 1612.06 893.81 C 1625.35 893.719 1656.48 891.155 1669.41 897.17 C 1671.53 898.157 1671.78 900.411 1672.05 902.541 C 1670.24 907.043 1667.33 909.78 1662.23 909.8 C 1648.96 909.851 1635.67 909.755 1622.39 909.704 L 1544.13 909.533 L 1309.2 909.236 C 1310.28 923.708 1309.49 950.139 1309.47 965.565 C 1309.73 995.297 1309.64 1025.03 1309.22 1054.76 C 1336.92 1071.79 1364.76 1088.58 1392.76 1105.11 C 1391.89 1098.53 1392.17 1083.87 1392.17 1076.83 L 1392.18 1029.37 L 1392.24 969.347 C 1392.25 959.574 1392.17 949.508 1392.42 939.772 C 1392.69 929.076 1409.32 928.054 1409.55 941.619 C 1409.89 960.666 1409.73 979.694 1409.7 998.745 L 1409.68 1114.34 C 1433.66 1126.47 1472.82 1151.83 1496.9 1166.25 L 1534.53 1188.67 C 1541.41 1192.74 1555.31 1199.05 1557.94 1205.95 C 1557.79 1213.47 1551.54 1217.64 1545.03 1213.79 C 1507.59 1191.66 1470.47 1168.94 1433.17 1146.55 C 1423.22 1140.58 1411.63 1134.04 1402.66 1126.83 C 1388.41 1136.38 1368.22 1147.54 1352.99 1156.62 L 1256.89 1214.34 C 1263.97 1222.02 1275.22 1237.38 1281.88 1245.97 C 1301.92 1271.99 1321.65 1298.24 1341.05 1324.74 C 1351.23 1338.49 1361.63 1352.15 1371.86 1365.86 C 1375.44 1370.65 1379.57 1376.77 1377.46 1382.89 C 1373.31 1386.06 1367.44 1386.22 1363.98 1381.86 C 1350.82 1365.23 1338.37 1347.95 1325.61 1331 L 1243.12 1221.84 C 1220.16 1237.65 1186.01 1256.88 1161.46 1271.67 L 1036.14 1347.67 C 1033.61 1349.71 1026.88 1353.37 1023.79 1355.16 C 951.619 1313.08 877.738 1266.34 805.67 1223.22 C 768.156 1270.34 733.659 1320.9 696.11 1368.13 C 690.465 1375.23 688.358 1381.86 679.828 1386.03 C 656.357 1387.02 687.398 1352.9 691.534 1347.54 C 700.325 1336.09 709.018 1324.56 717.61 1312.95 C 738.046 1285.62 770.281 1239.97 792.111 1215.49 C 773.581 1202.87 749.238 1188.88 729.67 1177.32 C 701.714 1160.63 673.66 1144.09 645.511 1127.72 C 622.37 1143.68 592.588 1159.48 568.473 1174.94 C 547.446 1187.61 526.882 1200.08 505.66 1212.49 C 497.288 1217.39 488.323 1213.71 491.336 1204.65 C 493.443 1198.31 509.662 1192.48 515.858 1188.23 C 532.622 1176.71 551.509 1166.51 568.924 1155.88 C 592.026 1143.13 615.38 1126.11 638.832 1114.76 C 637.77 1085.46 638.766 1048.69 638.787 1018.74 L 638.923 966.187 C 638.917 958.737 638.643 951.58 638.555 943.707 C 638.465 935.825 643.361 927.618 652.366 933.231 C 654.511 934.86 655.417 938.525 655.491 941.007 C 656.01 958.537 655.741 976.59 655.752 994.098 L 655.821 1104.82 C 683.181 1087.92 711.114 1071.89 738.284 1054.92 C 737.385 1020.68 738.968 985.88 738.422 951.578 C 738.201 937.69 738.175 923.14 738.906 909.291 C 713.712 909.914 687.33 909.393 662 909.422 L 529.624 909.737 L 431.116 909.437 C 418.672 909.401 390.732 912.095 378.146 907.105 C 376.167 906.32 375.603 904.131 375.218 902.149 C 379.025 889.613 406.862 893.932 418.166 893.934 L 493.112 893.822 L 738.851 893.958 C 737.6 880.379 738.303 861.854 738.292 847.711 L 738.154 767.105 C 710.794 750.562 682.81 734.72 655.779 717.572 C 656.427 765.136 655.23 812.851 656.008 860.426 C 656.237 874.455 639.118 872.411 638.948 862.941 C 638.66 846.861 638.893 830.556 638.894 814.443 L 639.015 706.008 C 628.343 700.559 616.605 692.837 606.189 686.457 C 576.414 668.22 546.074 650.759 516.659 631.978 C 508.063 626.489 485.999 619.743 491.992 607.059 C 495.557 603.803 498.641 603.355 502.884 605.635 C 518.444 613.995 533.766 623.737 548.858 632.911 L 647.73 693.606 C 699.33 664.164 753.132 628.243 804.477 600.409 C 791.587 584.198 779.253 566.727 766.911 550.031 L 713.719 478.324 C 705.075 466.396 696.36 454.519 687.575 442.695 C 681.548 434.702 664.27 418.707 674.481 410.131 C 681.695 407.858 685.46 412.909 689.702 418.716 C 732.173 476.855 775.933 534.224 818.041 592.617 C 835.017 580.227 860.99 566.451 879.286 554.838 C 923.462 526.798 973.181 500.449 1016.25 471.131 C 1016.04 447.102 1016 423.071 1016.13 399.042 C 1016.1 386.164 1015.82 372.393 1016.54 359.509 C 1016.69 356.93 1018.51 354.841 1020.07 352.902 z"/>
<path transform="translate(0,0)" fill="rgb(251,251,251)" d="M 1032.41 610.319 C 1039.64 613.667 1059.14 626.804 1067.67 631.749 C 1098.94 649.88 1130.03 670.425 1161.58 687.943 C 1153.97 697.535 1146.53 707.865 1139.19 717.711 C 1135.09 723.209 1131.24 729.193 1135.07 735.693 C 1143.72 740.21 1149.99 730.725 1154.64 724.334 C 1161.4 715.049 1167.98 705.543 1174.6 696.147 C 1207.62 717.311 1247.76 741.506 1281.58 761.094 L 1282.49 762.134 L 1281.81 763.575 C 1276.89 766.132 1271.62 769.263 1266.9 772.258 C 1246.16 785.432 1223.61 797.482 1203.43 811.406 C 1195.27 805.823 1183.01 798.979 1174.21 793.624 L 1114.97 757.424 C 1115.73 748.727 1118.61 728.722 1103.31 731.874 C 1098.5 735.515 1098.26 741.305 1097.25 747.16 C 1091.38 744.542 1081.16 737.544 1075.24 733.889 L 1032.24 707.372 C 1032.73 703.039 1032.84 697.512 1032.81 693.138 C 1032.62 665.654 1033.5 637.755 1032.41 610.319 z"/>
<path transform="translate(0,0)" fill="rgb(251,251,251)" d="M 844.666 1012.27 C 872.802 1029.84 904.177 1048.32 932.808 1065.14 C 932.693 1069.44 932.018 1075.69 934.471 1079.21 C 935.989 1081.37 938.338 1082.81 940.956 1083.17 C 945.035 1083.71 947.539 1079.37 950.946 1076.56 C 966.346 1083.98 999.914 1106.15 1015.51 1115.84 C 1015.19 1121.88 1015.06 1128 1015.16 1134.05 C 1015.59 1160.46 1014.42 1187.32 1015.81 1213.67 C 983.052 1192.93 949.976 1172.69 916.594 1152.97 C 903.629 1144.35 888.218 1135.8 874.62 1127.89 C 885.444 1112.95 897.805 1096.79 907.477 1081.11 C 909.927 1077.14 910.947 1073.04 909.531 1068.54 C 906.345 1065.69 908.149 1066.67 903.803 1065.71 C 898.001 1066.97 894.188 1072.6 890.877 1077.33 C 880.936 1091.52 871.894 1106.16 861.169 1119.81 C 847.254 1110.06 824.743 1097.58 809.774 1088.42 C 797.506 1080.91 774.937 1066.97 762.955 1061.5 C 784.963 1046.57 820.82 1026.77 844.666 1012.27 z"/>
<path transform="translate(0,0)" fill="rgb(251,251,251)" d="M 1014.65 609.923 C 1015.87 612.038 1015.32 699.036 1015.33 707.17 C 995.376 718.115 970.05 734.642 950.308 746.835 C 950.094 740.044 949.34 731.363 941.22 730.104 C 931.174 733.779 932.678 749.112 933.005 757.289 C 907.939 771.246 868.69 795.608 844.743 811.306 C 826.561 798.716 804.161 787.201 785.334 775.337 C 779.816 771.86 769.1 766.073 764.415 762.435 L 765.827 761.099 C 786.565 749.017 807.147 736.671 827.569 724.063 C 842.533 714.97 859.221 705.285 873.586 695.506 C 880.514 705.302 896.435 730.368 906.482 737.394 C 908.348 738.699 911.564 737.151 913.581 736.273 C 918.559 729.554 912.276 721.713 908.15 715.92 C 901.407 706.453 894.139 697.241 886.982 688.081 C 892.711 684.93 898.591 681.615 904.097 678.09 C 940.257 654.933 979.223 634.092 1014.65 609.923 z"/>
<path transform="translate(0,0)" fill="rgb(251,251,251)" d="M 1202.15 1012.15 C 1205.04 1013.32 1215.15 1019.67 1218.6 1021.53 C 1239.51 1032.8 1263.66 1050.44 1284.81 1060.19 C 1274.78 1065.23 1261.17 1073.99 1251.42 1079.91 C 1229.95 1092.95 1208.59 1106.19 1187.36 1119.61 C 1177.45 1106.24 1160.11 1080.09 1147.78 1068.41 C 1146.24 1066.95 1142.71 1067.78 1140.66 1068.4 C 1135.62 1073.36 1138.51 1079.81 1142.07 1084.85 C 1151.98 1098.9 1163.03 1113.88 1173.98 1127.04 C 1161.62 1133.51 1146.12 1143.46 1134.16 1150.82 C 1114.27 1162.75 1094.46 1174.8 1074.73 1186.98 C 1061.98 1194.81 1044.25 1205.07 1032.8 1213.97 C 1031.89 1183.34 1034.51 1144.26 1032.16 1115.58 C 1052.94 1104.63 1077.39 1088.6 1097.57 1076.02 C 1100.07 1080.57 1105.89 1086.77 1111.39 1081.82 C 1116.55 1077.18 1115.94 1071.07 1115.91 1064.67 C 1143.39 1048.97 1174.76 1028.81 1202.15 1012.15 z"/>
<path transform="translate(0,0)" fill="rgb(251,251,251)" d="M 1182.58 1141.99 C 1184.81 1142.35 1228.77 1201.96 1233.5 1208.57 C 1210.7 1221.07 1187.75 1235.68 1165.44 1249.22 L 1065.62 1309.38 C 1054.57 1316.09 1043.65 1323 1032.85 1330.1 C 1032.58 1298.39 1033.54 1264.79 1032.35 1233.29 C 1082.2 1204.64 1132.2 1170.69 1182.58 1141.99 z"/>
<path transform="translate(0,0)" fill="rgb(251,251,251)" d="M 865.309 1141.59 C 895.211 1161.44 931.907 1181.47 962.729 1200.74 C 976.467 1209.32 1002.22 1226.52 1015.1 1233.02 C 1015.55 1260.63 1013.57 1305.41 1015.94 1331.21 C 1007.65 1324.77 994.715 1317.21 985.544 1311.5 C 929.949 1278.83 871.265 1240.39 815.002 1209.6 C 832.248 1187.28 849.021 1164.61 865.309 1141.59 z"/>
<path transform="translate(0,0)" fill="rgb(251,251,251)" d="M 931.138 777.764 C 931.729 777.968 932.12 778.538 932.582 778.958 C 933.081 795.205 933 818.154 932.088 834.169 C 936.122 840.06 947.133 849.996 952.575 855.406 L 984.069 887.099 C 973.215 886.79 961.584 887.077 950.672 887.149 C 942.703 878.122 905.212 836.198 897.652 833.11 C 895.522 832.239 892.795 832.553 890.899 833.832 C 888.811 835.241 887.739 837.581 887.733 840.058 C 887.709 850.678 932.693 892.187 943.003 902.684 C 957.215 904.164 972.542 903.537 986.848 903.107 L 981.562 911.239 L 943.224 911.25 C 942.1 912.242 929.348 924.96 928.903 926 C 925.096 934.894 865.528 978.157 895.21 982.644 C 901.658 981.323 943.081 935.7 949.983 927.918 L 980.441 928.101 L 973.338 936.03 C 960.414 950.161 944.616 963.655 932.281 978.44 C 931.769 1000.12 932.492 1024.9 932.816 1046.69 C 918.861 1035.76 877.272 1011.76 860.685 1002.55 C 868.876 998.642 886.013 992.047 880.384 980.262 C 871.776 974.002 861.179 982.695 854.059 987.538 C 854.411 961.426 854.434 935.31 854.128 909.197 C 866.418 909.363 918.163 914.55 920.195 901.474 C 917.941 895.077 915.754 893.871 908.991 893.679 C 890.778 893.161 872.321 893.542 854.115 893.682 C 854.325 875.383 854.465 853.721 853.197 835.636 C 860.491 840.169 873.529 850.171 881.122 841.638 C 882.896 830.748 867.894 824.658 860.275 820.769 C 879.931 810.474 912.822 790.48 931.138 777.764 z"/>
<path transform="translate(0,0)" fill="rgb(251,251,251)" d="M 1032.08 492.405 C 1067.63 514.776 1105.59 537.157 1141.74 558.743 C 1168.12 574.815 1194.64 590.641 1221.31 606.216 C 1212.63 614.963 1199.98 634.024 1192.65 644.492 C 1186.27 653.903 1177.91 664.527 1171.09 674.194 L 1087.04 623.442 C 1069.79 612.945 1050.26 600.24 1032.74 590.677 C 1031.41 559.57 1033.26 524.731 1032.08 492.405 z"/>
<path transform="translate(0,0)" fill="rgb(251,251,251)" d="M 1014.58 492.952 L 1015.43 493.693 C 1016.36 499.158 1015.77 518.108 1015.72 524.579 L 1015.24 589.943 C 970.165 616.767 921.01 646.442 876.898 674.332 C 871.637 664.679 863.288 654.428 856.538 645.551 C 847.173 632.563 837.24 618.865 827.122 606.506 L 965.635 523.048 C 981.822 513.297 998.475 502.242 1014.58 492.952 z"/>
<path transform="translate(0,0)" fill="rgb(251,251,251)" d="M 1115.78 778.095 C 1138.87 792.314 1162.85 807.461 1186.61 820.508 C 1180.87 823.653 1169.67 828.844 1166.76 833.965 C 1163.51 857.576 1186.54 839.898 1193.9 834.766 C 1193.27 854.256 1193.08 873.758 1193.33 893.257 C 1176.52 893.362 1159.71 893.236 1142.9 892.881 C 1133.26 893.044 1126.46 892.705 1126.65 905.038 C 1128.19 906.254 1130.82 908.348 1132.72 908.508 C 1151.27 910.072 1174.52 909.314 1193.21 909.282 C 1193.06 935.688 1193.09 962.094 1193.3 988.499 C 1186.44 983.713 1173.54 973.32 1165.55 981.282 C 1163.02 992.095 1178.91 998.764 1186.22 1002.48 C 1175.41 1007.63 1162.85 1015.86 1152.5 1022.11 C 1140.05 1029.63 1127.22 1037.16 1115.1 1045.15 C 1115.32 1023.35 1116.36 999.535 1115.29 977.949 C 1104.32 966.42 1075.07 939.605 1068.16 928.031 L 1097.14 927.914 C 1104.5 935.906 1144.73 980.669 1151.92 981.756 C 1154.15 982.093 1156.58 980.94 1158.13 979.416 C 1159.84 977.727 1161.05 975.079 1160.79 972.632 C 1160.12 966.115 1110.89 916.77 1102.52 911.377 C 1093.72 910.871 1066.17 913.813 1062.33 906.103 L 1063.36 903.747 C 1071.32 902.585 1094.39 903.286 1104.62 902.937 C 1112.98 895.613 1159.73 849.172 1160.34 841.026 C 1160.53 838.582 1159.61 836.342 1157.9 834.605 C 1156.17 832.856 1154 832.131 1151.57 832.404 C 1145.48 833.088 1104.55 879.391 1097.51 886.923 L 1063.8 887.121 C 1080.32 869.794 1099.96 853.02 1116.06 835.141 C 1116.35 816.755 1115.87 796.605 1115.78 778.095 z"/>
<path transform="translate(0,0)" fill="rgb(251,251,251)" d="M 981.225 951.8 L 982.265 952.395 C 992.333 980.049 1015.52 997.16 1045.63 980.566 C 1056.96 974.327 1062.75 963.388 1065.47 950.982 C 1072.43 959.893 1089.38 976.068 1098.08 984.599 C 1097.97 1008.3 1098.04 1032.01 1098.3 1055.72 C 1083.17 1063.69 1046.16 1086.9 1031.97 1096.53 L 1032.52 1074.65 C 1032.56 1064.35 1037.53 1008.14 1023.98 1007.95 C 1021.28 1007.91 1018.72 1009.1 1017.01 1011.18 C 1013.14 1015.94 1015.43 1084.88 1015.73 1096.68 C 994.594 1082.2 970.996 1068.87 949.223 1054.74 C 950.27 1032.09 949.783 1007.79 949.03 985.111 C 960.114 974.257 971.167 963.624 981.225 951.8 z"/>
<path transform="translate(0,0)" fill="rgb(251,251,251)" d="M 811.829 614.757 C 815.914 615.492 828.604 634.198 831.602 638.228 C 842.216 652.698 853.032 667.019 864.045 681.188 C 852.664 689.023 835.491 698.828 823.397 706.173 L 746.835 752.568 C 741.132 749.072 735.365 745.681 729.538 742.396 C 708.545 729.073 686.145 716.254 664.651 703.653 C 696.44 685.185 727.965 666.268 759.218 646.908 C 776.232 636.544 795.485 625.804 811.829 614.757 z"/>
<path transform="translate(0,0)" fill="rgb(251,251,251)" d="M 1233.91 614.041 C 1240.78 616.979 1257.31 628.708 1264.84 633.049 C 1304.57 655.961 1343.3 680.761 1382.85 704.06 C 1367.34 711.192 1337.78 730.484 1321.65 740.356 C 1314.48 744.531 1307.97 748.642 1300.99 753.138 C 1287.49 743.964 1272.32 735.34 1258.27 726.835 C 1233.77 711.865 1209.15 697.104 1184.4 682.552 C 1199.92 660.614 1219.81 635.859 1233.91 614.041 z"/>
<path transform="translate(0,0)" fill="rgb(251,251,251)" d="M 745.451 1070.75 C 749.424 1071.19 841.709 1127.54 851.381 1133.8 C 835.007 1155.78 818.291 1180.09 801.508 1201.47 L 783.034 1189.87 C 764.175 1179.06 745 1166.51 726.171 1155.35 C 705.68 1143.22 684.868 1131.17 664.791 1118.43 C 671.14 1115.55 678.105 1111.31 684.119 1107.62 C 704.275 1095.27 725.867 1083.92 745.451 1070.75 z"/>
<path transform="translate(0,0)" fill="rgb(251,251,251)" d="M 1300.52 1070.24 C 1303.17 1071.19 1318.24 1080.65 1322.06 1082.83 C 1342.19 1094.34 1362.59 1108.01 1383 1118.86 C 1368.48 1126.03 1351.85 1136.56 1337.76 1145.1 C 1313.93 1159.53 1290.2 1174.13 1266.57 1188.89 C 1259.09 1193.29 1254.21 1196.26 1247.28 1201.39 C 1233.99 1180.82 1211.81 1152.7 1196.58 1132.91 C 1206.46 1127.92 1221.1 1118.46 1231.02 1112.48 L 1300.52 1070.24 z"/>
<path transform="translate(0,0)" fill="rgb(251,251,251)" d="M 1210.86 909.124 C 1236.55 910.127 1266.11 909.367 1292.08 909.257 L 1292.12 1043.88 C 1291.27 1044.76 1291.86 1044.32 1290.09 1044.77 C 1264.84 1029.07 1234.47 1012.56 1210.59 996.397 C 1211.97 971.206 1210.85 935.15 1210.86 909.124 z"/>
<path transform="translate(0,0)" fill="rgb(251,251,251)" d="M 755.798 909.218 C 782.311 909.869 810.416 909.339 837.054 909.266 C 836.87 938.444 836.902 967.623 837.15 996.801 L 805.465 1015.8 C 789.454 1025.56 771.377 1037.03 755.04 1045.79 C 756.15 1030.36 755.815 1011.99 755.812 996.322 C 755.635 967.288 755.63 938.252 755.798 909.218 z"/>
<path transform="translate(0,0)" fill="rgb(251,251,251)" d="M 755.149 777.256 C 759.667 779.155 775.849 789.462 780.774 792.461 C 799.316 804.007 818.056 815.231 836.986 826.128 L 836.968 894 C 813.752 892.752 779.506 893.906 755.74 894.063 C 755.636 856.74 757.01 814.205 755.149 777.256 z"/>
<path transform="translate(0,0)" fill="rgb(251,251,251)" d="M 1291.06 777.996 C 1293.02 780.23 1292.17 881.636 1292.16 893.753 C 1265.17 893.517 1238.19 893.551 1211.2 893.856 C 1208.96 885.162 1210.68 839.562 1210.43 827.052 C 1236.35 810.196 1264.7 794.682 1291.06 777.996 z"/>
<path transform="translate(0,0)" fill="rgb(251,251,251)" d="M 1013.93 728.031 L 1014.64 728.195 C 1016.58 730.284 1015.69 743.312 1015.67 747.147 C 1015.58 772.538 1015.46 797.93 1015.36 823.322 C 994.038 829.958 985.168 842.831 983.252 864.341 C 977.813 857.488 973.819 853.153 967.679 846.939 L 949.616 829.178 C 949.45 808.378 949.717 787.297 949.804 766.476 C 970.957 754.792 993.21 740.689 1013.93 728.031 z"/>
<path transform="translate(0,0)" fill="rgb(251,251,251)" d="M 1031.96 727.376 C 1051.73 738.125 1077.85 755.761 1098.56 767.963 L 1098.31 829.909 C 1092.97 834.439 1086.84 840.668 1081.7 845.635 C 1075.99 851.015 1070.03 857.624 1064.59 863.388 C 1062 842.623 1053.09 828.643 1031.9 823.31 C 1032.41 791.334 1032.43 759.352 1031.96 727.376 z"/>
<path transform="translate(0,0)" fill="rgb(251,251,251)" d="M 1020.41 839.09 C 1026.85 838.678 1031.03 839.452 1036.52 843.318 C 1042.37 847.481 1046.3 853.828 1047.41 860.925 C 1049.73 874.849 1042.26 883.119 1034.7 893.578 C 1037.33 897.213 1042.35 903.218 1044.44 906.614 C 1051.57 918.012 1053.66 931.857 1050.2 944.849 C 1046.87 957.253 1040.26 963.968 1029.54 969.913 C 998.27 972.285 991.967 935.408 1000.73 912.56 C 1003.86 904.391 1007.77 899.826 1013.56 893.511 C 997.603 873.634 991.079 849.853 1020.41 839.09 z"/>
<path transform="translate(0,0)" fill="rgb(1,1,1)" d="M 836.324 1507.16 C 869.721 1507.13 914.311 1502.89 918.97 1549.82 C 920.553 1565.77 915.365 1577.57 905.077 1589.47 C 884.437 1606 861.915 1602.29 836.223 1602.1 C 836.945 1571.47 836.317 1538.03 836.324 1507.16 z"/>
<path transform="translate(0,0)" fill="rgb(251,251,251)" d="M 850.039 1520.04 C 864.969 1519.73 881.573 1517.7 893.567 1528.34 C 909.308 1542.3 908.191 1564.9 895.048 1580.1 C 880.787 1591.61 867.752 1589.67 850.091 1589.73 C 850.618 1566.5 850.601 1543.26 850.039 1520.04 z"/>
<path transform="translate(0,0)" fill="rgb(1,1,1)" d="M 939.146 1507.06 C 961.96 1507.8 1009.47 1499.86 1010.11 1530.74 C 1010.37 1542.94 1005.66 1544.88 998.258 1553.21 C 1002.72 1557.81 1007.48 1558.96 1010.91 1565.32 C 1015.27 1573.38 1013.83 1579.35 1011.67 1587.42 C 998.883 1607.93 961.221 1601.97 939.174 1602.1 C 939.979 1571.86 939.514 1537.4 939.146 1507.06 z"/>
<path transform="translate(0,0)" fill="rgb(251,251,251)" d="M 953.067 1559.29 C 967.993 1559.81 1016.33 1556.29 994.729 1586.2 C 985.099 1591.91 964.912 1590.07 952.957 1589.95 L 953.067 1559.29 z"/>
<path transform="translate(0,0)" fill="rgb(251,251,251)" d="M 953.027 1519.06 C 966.756 1519.75 1011.76 1515.16 992.009 1543.41 C 982.405 1550.37 965.371 1548.28 953.004 1548.04 L 953.027 1519.06 z"/>
<path transform="translate(0,0)" fill="rgb(1,1,1)" d="M 1402.16 1547.43 C 1405.94 1536.99 1413.51 1534.03 1414.43 1530.58 C 1418.2 1516.49 1411.83 1465.78 1415.93 1454.6 C 1417.81 1455.2 1418.19 1455.11 1418.29 1456.28 C 1419.95 1475.17 1419.55 1515.2 1419.68 1532.99 C 1427.85 1536.18 1428.3 1538.15 1432.52 1545.73 C 1437.33 1541.71 1438.78 1539.72 1442.57 1534.91 C 1442.7 1527.9 1441.43 1503.33 1444.88 1499.95 L 1446.66 1500.06 C 1450.31 1505.05 1449.05 1528.42 1449.05 1536.37 L 1448.43 1537.3 C 1443.43 1544.63 1438.21 1548.99 1431.62 1554.74 C 1434.16 1557.42 1441.75 1555.83 1444.82 1553.75 C 1451.26 1549.38 1459.43 1535.26 1467.03 1534.49 C 1468.94 1536.68 1468.49 1535.43 1468.38 1538.39 C 1463.63 1545.86 1448.95 1557.09 1447.45 1561.18 L 1447.23 1565.08 C 1452.07 1571.65 1464.56 1581.72 1469.09 1588.91 C 1468.08 1591.54 1468.88 1590.33 1465.61 1591.96 C 1454.07 1590.34 1453.46 1569.55 1433.96 1569.99 L 1433.4 1571.17 C 1440.6 1578.59 1442.54 1580.11 1449.01 1588.57 C 1449.34 1597.73 1451.04 1617.69 1446.73 1624.78 L 1445.24 1624.3 C 1441.85 1615.26 1442.91 1601.15 1443.03 1591.12 C 1439.14 1585.92 1437.84 1583.91 1432.52 1580.13 C 1423.15 1597.67 1408.62 1600.98 1402.49 1579.36 C 1398.45 1582.96 1394.8 1586.81 1391.02 1590.68 C 1391.11 1598.63 1392.27 1618.98 1388.38 1624.41 L 1387.01 1623.7 C 1383.56 1614.62 1384.23 1599.05 1384.1 1588.86 C 1388.32 1583.34 1399.2 1574.43 1400.87 1570.94 C 1385.57 1564.44 1380.36 1589.68 1368.82 1591.1 C 1366.23 1588.9 1366.94 1590.23 1366.3 1587.16 C 1370.51 1581.74 1383.54 1568.6 1388.85 1564.36 L 1387.24 1561.46 C 1382.54 1556.46 1368.09 1542.33 1366.35 1537.57 L 1366.54 1535.48 C 1376.74 1530.48 1381.14 1556.05 1399.72 1556.19 L 1401.15 1555.09 C 1399.54 1551.24 1388.33 1542.01 1384.45 1537.29 C 1384.46 1529.04 1383.52 1507.12 1386.76 1500.67 L 1388.38 1500.06 C 1391.41 1502.81 1391.35 1504.16 1391.37 1509.38 C 1391.41 1517.79 1390.97 1526.1 1391.34 1534.58 C 1395.2 1539.58 1397.84 1542.8 1402.16 1547.43 z"/>
<path transform="translate(0,0)" fill="rgb(232,233,230)" d="M 1447.23 1565.08 C 1440.66 1565.06 1436.05 1564.83 1429.5 1564.25 L 1429.35 1563.63 C 1436.41 1561.48 1438.86 1562.51 1445.43 1561.5 L 1447.45 1561.18 L 1447.23 1565.08 z"/>
<path transform="translate(0,0)" fill="rgb(232,233,230)" d="M 1387.24 1561.46 C 1392.93 1561.42 1396.63 1560.99 1402.03 1562.83 L 1403.01 1564.02 C 1400.86 1565.77 1393.45 1564.84 1390.62 1564.55 L 1388.85 1564.36 L 1387.24 1561.46 z"/>
<path transform="translate(0,0)" fill="rgb(1,1,1)" d="M 1061.97 1507.22 L 1077.3 1507.08 C 1090.94 1538.56 1103.91 1571.04 1117.69 1602.17 L 1101.66 1601.82 C 1098.56 1594.01 1095.77 1586.76 1093.03 1578.83 L 1077.75 1578.93 C 1067.7 1578.97 1057.65 1578.81 1047.61 1578.46 C 1044.37 1585.73 1041.05 1594.59 1038.02 1602.08 L 1023.57 1602.15 C 1036.02 1570.75 1050.72 1538.85 1061.97 1507.22 z"/>
<path transform="translate(0,0)" fill="rgb(251,251,251)" d="M 1069.31 1523.54 C 1071.96 1525.92 1085.28 1560.88 1087.89 1567.1 L 1069.45 1566.93 L 1051.73 1567.18 C 1057.69 1554.75 1064.31 1536.62 1069.31 1523.54 z"/>
<path transform="translate(0,0)" fill="rgb(1,1,1)" d="M 749.329 1507.19 C 771.218 1507.67 793.111 1507.89 815.004 1507.84 L 814.937 1519.95 C 797.901 1519.76 780.865 1519.7 763.828 1519.78 C 763.871 1529.48 763.997 1538.4 763.244 1548.1 L 809.735 1548.02 L 810.171 1560.1 L 763.298 1559.97 C 763.491 1569.94 763.533 1579.92 763.425 1589.9 C 780.397 1589.24 798.622 1589.3 815.697 1589.04 C 815.31 1592.95 815.544 1597.96 815.608 1601.97 C 793.651 1601.87 771.694 1601.9 749.738 1602.08 C 749.505 1575.65 751.321 1531.78 749.329 1507.19 z"/>
<path transform="translate(0,0)" fill="rgb(1,1,1)" d="M 1287.07 1507.84 L 1305.92 1506.78 C 1293.16 1521.33 1279.26 1533.97 1266.44 1548.61 C 1271.95 1556.52 1280.7 1566.92 1286.86 1574.66 C 1293.93 1584.06 1300.97 1593.24 1307.54 1603 C 1301.6 1602.16 1296.32 1602.08 1290.33 1601.88 C 1279.72 1588.96 1267.04 1571.26 1257.3 1557.48 C 1252.11 1563.28 1247.03 1569.17 1242.06 1575.15 L 1242.1 1602.12 L 1227.84 1601.93 L 1227.95 1507.06 L 1242.17 1507.26 C 1241.7 1524.33 1242.4 1541.34 1241.12 1558.42 C 1255.23 1541.67 1272.12 1524.06 1287.07 1507.84 z"/>
<path transform="translate(0,0)" fill="rgb(1,1,1)" d="M 726.068 1507.52 L 727.345 1508.13 C 728.472 1511.05 727.883 1516.54 727.76 1519.89 L 676.309 1519.47 L 676.159 1548.19 L 722.945 1548.04 L 723.094 1560.1 C 708.013 1559.68 691.298 1560.05 676.092 1560.07 C 676.375 1569.63 676.118 1580.13 676.081 1589.75 L 702.5 1589.41 L 728.102 1588.89 L 728.26 1602.06 C 708.51 1601.13 682.835 1601.94 662.697 1602.24 C 662.932 1570.83 661.989 1538.74 662.783 1507.52 C 683.877 1507.84 704.974 1507.84 726.068 1507.52 z"/>
<path transform="translate(0,0)" fill="rgb(1,1,1)" d="M 1169.17 1506.32 C 1188.2 1505.31 1198.74 1512.2 1210.89 1525.59 C 1207.49 1528.4 1203.84 1531.09 1200.31 1533.77 C 1195.71 1528.26 1189.74 1523.39 1182.97 1520.84 C 1175.44 1517.98 1167.06 1518.3 1159.77 1521.72 C 1150.83 1525.82 1143.91 1533.85 1140.73 1543.1 C 1137.61 1552.43 1138.29 1562.62 1142.6 1571.46 C 1151.6 1589.56 1171.95 1594.9 1189.7 1586.18 C 1194.58 1582.25 1195.83 1581.16 1199.96 1576.38 L 1210.52 1583.87 C 1193.73 1604.06 1168.84 1610.9 1146.02 1595.37 C 1134.67 1587.57 1127 1575.47 1124.78 1561.88 C 1122.85 1549.17 1125.99 1536.22 1133.53 1525.81 C 1142.91 1512.99 1154.37 1508.73 1169.17 1506.32 z"/>
<path transform="translate(0,0)" fill="rgb(1,1,1)" d="M 581.351 1507.23 C 602.492 1507.61 623.637 1507.81 644.782 1507.84 L 644.927 1519.52 C 628.346 1519.31 611.762 1519.38 595.183 1519.72 L 595.295 1549.2 C 603.22 1549.04 633.913 1547.77 639.451 1549.93 L 640.375 1553.43 C 640.155 1556.75 640.235 1557.08 639.204 1560.37 C 633.805 1561.53 602.297 1561.32 595.276 1561.39 L 595.82 1601.81 L 581.103 1601.98 C 581.49 1576.64 583.211 1531.01 581.351 1507.23 z"/>
</svg>